<svg width="20" height="20" fill="none" xmlns="http://www.w3.org/2000/svg"><path fill-rule="evenodd" clip-rule="evenodd" d="M5 0a5 5 0 00-5 5v10a5 5 0 005 5h10a5 5 0 005-5V5a5 5 0 00-5-5H5zm4.865 13.245l4.75-4.75c.34-.34.34-.89 0-1.24a.881.881 0 00-1.24 0l-4.13 4.13-1.75-1.75a.881.881 0 00-1.24 0c-.34.34-.34.89 0 1.24l2.38 2.37c.17.17.39.25.61.25.23 0 .45-.08.62-.25z" fill="#5B7DDE"/><path d="M9.865 13.245l4.75-4.75c.34-.34.34-.89 0-1.24a.881.881 0 00-1.24 0l-4.13 4.13-1.75-1.75a.881.881 0 00-1.24 0c-.34.34-.34.89 0 1.24l2.38 2.37c.17.17.39.25.61.25.23 0 .45-.08.62-.25z" fill="#fff"/></svg>