<svg width="146" height="48" fill="none" xmlns="http://www.w3.org/2000/svg"><g clip-path="url(#clip0_141_1733)" fill="#fff"><path d="M14.15 6.467c-2.05 0-3.638.773-4.763 2.32-1.125 1.535-1.688 3.68-1.688 6.434 0 5.73 2.15 8.595 6.451 8.595 1.805 0 3.99-.45 6.557-1.353v4.57c-2.11.88-4.465 1.319-7.066 1.319-3.739 0-6.598-1.131-8.579-3.393-1.98-2.273-2.97-5.531-2.97-9.774 0-2.671.486-5.01 1.459-7.013.972-2.016 2.367-3.557 4.183-4.623 1.829-1.078 3.967-1.617 6.416-1.617 2.496 0 5.004.603 7.524 1.81l-1.758 4.43a29.089 29.089 0 00-2.9-1.195 8.652 8.652 0 00-2.866-.51zM47.145 28h-6.188l-9.316-13.025V28h-5.45V2.3h5.45v12.446l9.21-12.445h5.801l-9.369 12.34L47.144 28zm18.966 0l-1.863-6.117h-9.37L53.017 28h-5.871l9.07-25.805h6.662L71.982 28h-5.87zm-3.164-10.688a5205.508 5205.508 0 01-2.918-9.404c-.21-.726-.363-1.3-.457-1.722-.387 1.5-1.494 5.209-3.322 11.127h6.697zm12.287-15.01h4.905v12.41l-.07 3.322-.176 3.78h.105L91.863 2.3h6.522V28h-4.852V15.66c0-1.652.106-4.101.317-7.348h-.141L81.791 28h-6.557V2.3zm20.092-8.35c-.222 2.192-1.049 3.791-2.478 4.799-1.43.996-3.492 1.494-6.188 1.494-2.777 0-4.834-.48-6.17-1.441-1.324-.961-2.068-2.578-2.232-4.852h4.799c.082 1.207.38 2.057.896 2.549.528.48 1.465.72 2.813.72 1.183 0 2.062-.263 2.636-.79.586-.54.944-1.366 1.073-2.479h4.851zM8.629 45h-.672v-6.454H3.82V45h-.672v-6.965h5.481V45zm4.86-1.519c.136.2.276.371.42.511.15.135.306.247.47.336.163.084.335.145.517.182.187.037.383.056.588.056.411 0 .77-.075 1.078-.224.308-.15.565-.36.77-.63.21-.275.367-.602.47-.98.107-.383.16-.803.16-1.26 0-1.036-.191-1.797-.574-2.282-.382-.49-.93-.735-1.645-.735-.462 0-.88.119-1.253.357-.373.238-.707.57-1 .994v3.675zm-.028-4.193c.308-.42.668-.754 1.078-1.001a2.67 2.67 0 011.393-.371c.854 0 1.52.296 1.995.889.481.593.721 1.482.721 2.667 0 .509-.067.985-.203 1.428a3.32 3.32 0 01-.588 1.148 2.769 2.769 0 01-.952.763c-.373.187-.805.28-1.295.28-.471 0-.88-.086-1.225-.259a2.531 2.531 0 01-.896-.763v3.395h-.672v-9.429h.371c.117 0 .185.058.203.175l.07 1.078zm11.715-1.365c.5 0 .945.086 1.337.259.397.168.73.408 1.001.721.27.313.476.69.616 1.134a4.7 4.7 0 01.217 1.477 4.7 4.7 0 01-.217 1.477 3.17 3.17 0 01-.616 1.127 2.69 2.69 0 01-1 .721 3.365 3.365 0 01-1.338.252c-.5 0-.947-.084-1.344-.252a2.768 2.768 0 01-1-.721 3.26 3.26 0 01-.624-1.127 4.846 4.846 0 01-.21-1.477c0-.546.07-1.038.21-1.477a3.25 3.25 0 01.623-1.134 2.768 2.768 0 011.001-.721 3.335 3.335 0 011.344-.259zm0 6.643c.416 0 .777-.07 1.085-.21.313-.145.572-.35.777-.616a2.68 2.68 0 00.47-.959c.102-.378.153-.8.153-1.267a4.79 4.79 0 00-.154-1.26 2.665 2.665 0 00-.469-.966 2.029 2.029 0 00-.777-.623c-.308-.145-.67-.217-1.085-.217-.415 0-.78.072-1.092.217a2.101 2.101 0 00-.777.623 2.827 2.827 0 00-.469.966 4.807 4.807 0 00-.154 1.26c0 .467.052.889.154 1.267.108.373.264.693.47.959.21.266.468.471.776.616.313.14.677.21 1.092.21zm11.265-6.335a.468.468 0 01.147-.14.404.404 0 01.203-.056h.51l-2.043 2.744c-.108.15-.227.278-.357.385a1.35 1.35 0 01-.462.238c.22.047.408.128.567.245.158.112.303.264.434.455L37.519 45h-.47a.615.615 0 01-.286-.056.564.564 0 01-.182-.182l-1.764-2.471a1.334 1.334 0 00-1.127-.595h-.903v3.311h-.672v-6.972h.672v3.199h.805a1.251 1.251 0 00.994-.525l1.855-2.478zm8.271 3.402a12.71 12.71 0 00-1.715.161c-.475.08-.87.189-1.182.329-.308.14-.537.308-.686.504a1.04 1.04 0 00-.224.658c0 .233.037.436.111.609.08.168.183.308.309.42.13.107.28.187.447.238.169.051.343.077.526.077.27 0 .517-.028.741-.084a2.8 2.8 0 00.63-.245c.197-.107.379-.233.547-.378.167-.145.333-.301.496-.469v-1.82zm-4.095-2.611a4.03 4.03 0 011.149-.826 3.2 3.2 0 011.364-.28c.374 0 .7.06.98.182.28.117.511.287.694.511.186.22.326.488.42.805.093.313.14.663.14 1.05V45h-.267c-.14 0-.226-.065-.258-.196l-.099-.896a6.938 6.938 0 01-.574.504 3.036 3.036 0 01-1.253.616 3.421 3.421 0 01-.784.084 2.31 2.31 0 01-.692-.105 1.784 1.784 0 01-.602-.322 1.624 1.624 0 01-.42-.553 1.988 1.988 0 01-.154-.819c0-.294.083-.567.252-.819.168-.252.431-.471.79-.658.36-.187.82-.336 1.38-.448.564-.112 1.24-.177 2.03-.196v-.728c0-.644-.14-1.139-.42-1.484-.276-.35-.687-.525-1.233-.525-.336 0-.623.047-.86.14a3.062 3.062 0 00-.596.308 3.764 3.764 0 00-.398.308c-.103.093-.19.14-.26.14a.212.212 0 01-.125-.035.315.315 0 01-.084-.091l-.12-.203zm14.207-.476h-2.912V45h-.672v-6.454h-2.912v-.511h6.496v.511zm14.59-.511V45h-.666v-5.614a3.354 3.354 0 01.028-.434 3.228 3.228 0 01-.098.182 1.033 1.033 0 01-.09.14 51.764 51.764 0 01-.679.903c-.197.261-.42.558-.673.889l-.756 1.015-2.065 2.751a.53.53 0 01-.112.119.222.222 0 01-.14.049h-.385v-6.965h.672v5.614a3.354 3.354 0 01-.028.434 2.943 2.943 0 01.371-.581 219.436 219.436 0 001.155-1.533 2838.55 2838.55 0 012.828-3.759.429.429 0 01.105-.119.232.232 0 01.147-.056h.385zm9.665 0V45h-.672v-3.493H74.27V45h-.672v-6.965h.672v2.961h4.137v-2.961h.672zm6.652 6.489c.294 0 .56-.035.798-.105.238-.07.439-.17.602-.301.164-.13.29-.29.378-.476.089-.187.133-.394.133-.623 0-.21-.035-.401-.105-.574a1.064 1.064 0 00-.336-.441 1.507 1.507 0 00-.588-.287 3.08 3.08 0 00-.86-.105H83.91v2.912h1.82zm-1.82-6.027v2.667h1.652c.252 0 .486-.033.7-.098.215-.07.4-.168.553-.294a1.32 1.32 0 00.49-1.036c0-.159-.03-.31-.09-.455a.957.957 0 00-.295-.399 1.503 1.503 0 00-.539-.28 2.73 2.73 0 00-.819-.105h-1.652zm1.673-.462c.42 0 .777.044 1.071.133.294.084.532.2.714.35.182.145.315.315.4.511.083.196.125.401.125.616 0 .154-.023.317-.07.49a1.586 1.586 0 01-.238.49 1.673 1.673 0 01-.455.427 1.98 1.98 0 01-.707.28c.63.075 1.095.264 1.393.567.299.299.448.674.448 1.127 0 .313-.063.593-.189.84a1.73 1.73 0 01-.518.616 2.353 2.353 0 01-.798.385 3.686 3.686 0 01-1.022.133h-2.47v-6.965h2.316zm11.309 2.779c0-.373-.054-.707-.161-1.001a2.087 2.087 0 00-.441-.756 1.894 1.894 0 00-.686-.469 2.181 2.181 0 00-.868-.168c-.36 0-.681.056-.966.168a2.15 2.15 0 00-.742.483c-.205.21-.371.462-.497.756s-.21.623-.252.987h4.613zm-4.648.427v.133c0 .523.06.982.182 1.379.121.397.294.73.518 1.001.224.266.495.467.812.602.317.135.672.203 1.064.203.35 0 .653-.037.91-.112.257-.08.471-.166.644-.259.177-.098.317-.184.42-.259.103-.08.177-.119.224-.119a.16.16 0 01.14.07l.182.224c-.112.14-.261.27-.448.392a3.18 3.18 0 01-.616.315 4.59 4.59 0 01-.728.203 3.955 3.955 0 01-.777.077 3.36 3.36 0 01-1.302-.245 2.797 2.797 0 01-1.008-.728 3.345 3.345 0 01-.651-1.162 5.14 5.14 0 01-.224-1.582c0-.5.07-.959.21-1.379.145-.425.35-.789.616-1.092.27-.308.6-.548.987-.721a3.267 3.267 0 011.33-.259c.392 0 .756.068 1.092.203.336.135.628.334.875.595.247.257.441.574.581.952.145.378.217.812.217 1.302 0 .103-.014.173-.042.21-.028.037-.075.056-.14.056h-5.068zm14.434-3.206V45h-.672v-3.493h-4.137V45h-.672v-6.965h.672v2.961h4.137v-2.961h.672zm9.76.511h-2.912V45h-.672v-6.454h-2.912v-.511h6.496v.511zm7.053 3.087c-.663.023-1.234.077-1.715.161-.476.08-.87.189-1.183.329-.308.14-.537.308-.686.504a1.04 1.04 0 00-.224.658c0 .233.037.436.112.609.079.168.182.308.308.42.131.107.28.187.448.238.168.051.343.077.525.077.271 0 .518-.028.742-.084a2.887 2.887 0 001.176-.623c.168-.145.334-.301.497-.469v-1.82zm-4.095-2.611a4.04 4.04 0 011.148-.826c.401-.187.856-.28 1.365-.28.373 0 .7.06.98.182.28.117.511.287.693.511.187.22.327.488.42.805.093.313.14.663.14 1.05V45h-.266c-.14 0-.226-.065-.259-.196l-.098-.896a6.922 6.922 0 01-.574.504c-.187.15-.383.275-.588.378a3.028 3.028 0 01-.665.238 3.421 3.421 0 01-.784.084 2.31 2.31 0 01-.693-.105 1.781 1.781 0 01-.602-.322 1.617 1.617 0 01-.42-.553 1.983 1.983 0 01-.154-.819c0-.294.084-.567.252-.819.168-.252.432-.471.791-.658.359-.187.819-.336 1.379-.448.565-.112 1.241-.177 2.03-.196v-.728c0-.644-.14-1.139-.42-1.484-.275-.35-.686-.525-1.232-.525-.336 0-.623.047-.861.14a3.065 3.065 0 00-.595.308 3.848 3.848 0 00-.399.308c-.103.093-.189.14-.259.14a.213.213 0 01-.126-.035.307.307 0 01-.084-.091l-.119-.203zm9.539 4.459c.136.2.276.371.42.511.15.135.306.247.469.336.164.084.336.145.518.182a3 3 0 00.588.056c.411 0 .77-.075 1.078-.224.308-.15.565-.36.77-.63a2.8 2.8 0 00.469-.98 4.63 4.63 0 00.161-1.26c0-1.036-.191-1.797-.574-2.282-.382-.49-.931-.735-1.645-.735-.462 0-.879.119-1.253.357-.373.238-.707.57-1.001.994v3.675zm-.028-4.193c.308-.42.668-.754 1.078-1.001.416-.247.88-.371 1.393-.371.854 0 1.519.296 1.995.889.481.593.721 1.482.721 2.667 0 .509-.067.985-.203 1.428a3.32 3.32 0 01-.588 1.148 2.762 2.762 0 01-.952.763c-.373.187-.805.28-1.295.28-.471 0-.879-.086-1.225-.259a2.534 2.534 0 01-.896-.763v3.395h-.672v-9.429h.371c.117 0 .185.058.203.175l.07 1.078zm12.64 2.142v-2.933h-1.491a2.15 2.15 0 00-.826.14 1.624 1.624 0 00-.539.357 1.344 1.344 0 00-.294.483 1.736 1.736 0 00-.084.525c0 .224.044.425.133.602.093.177.226.327.399.448.173.121.383.215.63.28.247.065.525.098.833.098h1.239zm.651-3.395V45h-.651v-3.129h-.84c-.117 0-.217.007-.301.021a.788.788 0 00-.217.07.708.708 0 00-.168.126 1.325 1.325 0 00-.161.182l-2.037 2.492a.508.508 0 01-.175.182.572.572 0 01-.28.056h-.462l2.359-2.856a.93.93 0 01.511-.406 3.33 3.33 0 01-.98-.203 2.153 2.153 0 01-.658-.399 1.552 1.552 0 01-.371-.546 1.882 1.882 0 01.014-1.323c.084-.229.219-.434.406-.616.191-.182.439-.329.742-.441.303-.117.672-.175 1.106-.175h2.163z"/></g><defs><clipPath id="clip0_141_1733"><path fill="#fff" d="M0 0h146v48H0z"/></clipPath></defs></svg>