<svg width="43" height="42" fill="none" xmlns="http://www.w3.org/2000/svg"><g clip-path="url(#clip0_122_729)"><path d="M34.792 42H8.542a7.875 7.875 0 01-7.875-7.875V7.875A7.875 7.875 0 018.542 0h26.25a7.875 7.875 0 017.875 7.875v26.25A7.875 7.875 0 0134.792 42z" fill="#F4F6F8"/><path d="M31.722 12.097l-4.594-1.561a.648.648 0 00-.423 0l-4.593 1.561a.656.656 0 00-.445.623v3.516c0 4.291 4.789 6.376 4.994 6.464a.656.656 0 00.513 0c.203-.088 4.993-2.174 4.993-6.466V12.72a.656.656 0 00-.445-.622zm-1.93 3.318l-2.405 3.062a.876.876 0 01-1.258.124l-1.532-1.313a.875.875 0 011.138-1.328l.84.718 1.842-2.344a.875.875 0 011.375 1.081z" fill="#95AAF1"/><path d="M32.167 22.969a1.54 1.54 0 01-1.532 1.531h-1.103a5.354 5.354 0 01-2.615 4.542v.928a1.54 1.54 0 01-1.532 1.53h-.876a1.54 1.54 0 01-1.53-1.532v-.219h-3.5v.22a1.54 1.54 0 01-1.532 1.531h-.874a1.54 1.54 0 01-1.532-1.532v-1.216a5.814 5.814 0 01-2.415-3.377h-.428c-.84 0-1.531-.69-1.531-1.53v-1.313c0-.84.691-1.532 1.531-1.532h1.217c.21-.315.455-.613.735-.892.28-.28.577-.526.893-.736v-2.966a.67.67 0 01.227-.498.678.678 0 01.525-.149c2.336.35 3.22 1.523 3.508 2.616h.437c.962 3.133 3.876 5.154 5.74 5.933.297.13.62.192.935.192.315 0 .64-.061.936-.192a10.562 10.562 0 001.995-1.12h.788a.217.217 0 00.219-.22.216.216 0 00-.22-.218.522.522 0 01-.166-.027 9.33 9.33 0 001.076-.98c.378.28.624.727.624 1.226z" fill="#5B7DDE"/></g><defs><clipPath id="clip0_122_729"><path fill="#fff" transform="translate(.667)" d="M0 0h42v42H0z"/></clipPath></defs></svg>