<svg width="43" height="42" fill="none" xmlns="http://www.w3.org/2000/svg"><path d="M34.458 42H8.208a7.875 7.875 0 01-7.875-7.875V7.875A7.875 7.875 0 018.208 0h26.25a7.875 7.875 0 017.875 7.875v26.25A7.875 7.875 0 0134.458 42z" fill="#F4F6F8"/><path d="M18.368 21.656l-6.676.01.586-6.318a2.398 2.398 0 012.398-2.178h.788a6.088 6.088 0 00-.254 1.758c0 2.721 1.801 5.232 3.158 6.728zm4.182 1.75L16.925 31.5h-3.51c-.682 0-1.33-.289-1.785-.788a2.418 2.418 0 01-.613-1.846l.508-5.451 8.82-.01h2.205zm1.759-1.75c1.348-1.496 3.15-4.007 3.15-6.729 0-.613-.088-1.207-.253-1.759h.787a2.4 2.4 0 012.398 2.18l.587 6.3-6.67.008zm6.831 1.74l-6.461.008-5.623 8.096h10.2a2.406 2.406 0 002.396-2.631l-.512-5.474z" fill="#5B7DDE"/><path d="M21.335 10.5c-2.413 0-4.375 1.987-4.375 4.43 0 3.37 3.787 6.649 3.948 6.788a.652.652 0 00.853 0c.162-.138 3.948-3.416 3.948-6.788 0-2.443-1.963-4.43-4.374-4.43zm0 6.125a1.752 1.752 0 010-3.5 1.751 1.751 0 010 3.5z" fill="#95AAF1"/></svg>