<svg width="42" height="42" fill="none" xmlns="http://www.w3.org/2000/svg"><g clip-path="url(#clip0_122_719)"><path d="M34.125 42H7.875A7.875 7.875 0 010 34.125V7.875A7.875 7.875 0 017.875 0h26.25A7.875 7.875 0 0142 7.875v26.25A7.875 7.875 0 0134.125 42z" fill="#F4F6F8"/><path d="M31.055 12.097l-4.594-1.561a.648.648 0 00-.422 0l-4.594 1.561a.657.657 0 00-.445.623v3.516c0 4.291 4.79 6.376 4.994 6.464a.642.642 0 00.512 0c.205-.088 4.994-2.174 4.994-6.466V12.72a.656.656 0 00-.445-.622zm-1.93 3.318l-2.405 3.062a.876.876 0 01-1.258.125l-1.531-1.312a.875.875 0 011.14-1.329l.838.718 1.843-2.344a.874.874 0 111.374 1.08z" fill="#95AAF1"/><path d="M10.93 21.001a.439.439 0 00-.43.439v8.091c0 .121.098.22.22.22h2.074a.44.44 0 00.422-.318l1.936-6.824a.874.874 0 00-.543-1.06c-.794-.29-2.009-.575-3.68-.548zm18.82 4.812c-1.75 0-5.25 2.215-7 2.215s-3.719-1.34-3.719-1.34 2.358.437 3.719.437c1.362 0 1.75-.464 1.75-1.093 0-1.532-2.602-1.77-3.917-1.969-1.292-.719-1.963-1.287-4.102-1.468a2.327 2.327 0 01-.067.372l-1.757 6.195c1.99.906 5.419 2.34 7.218 2.34 2.625 0 9.626-3.5 9.626-4.374-.001-.878-.875-1.315-1.75-1.315z" fill="#5B7DDE"/></g><defs><clipPath id="clip0_122_719"><path fill="#fff" d="M0 0h42v42H0z"/></clipPath></defs></svg>