<svg width="38" height="38" fill="none" xmlns="http://www.w3.org/2000/svg"><rect width="38" height="38" rx="8" fill="#F4F6F8"/><g clip-path="url(#clip0_122_710)"><path d="M14 11.5a2.5 2.5 0 00-2.5 2.5v2c0 5.799 4.701 10.5 10.5 10.5h2a2.5 2.5 0 002.5-2.5v-1.382a1.5 1.5 0 00-.83-1.342l-2.415-1.208a1.5 1.5 0 00-2.094.868l-.298.893a.71.71 0 01-.812.471 5.547 5.547 0 01-4.351-4.35.71.71 0 01.471-.812l1.109-.37a1.5 1.5 0 00.98-1.787l-.586-2.344A1.5 1.5 0 0016.22 11.5H14z" fill="#5B7DDE"/></g><defs><clipPath id="clip0_122_710"><path fill="#fff" transform="translate(11.5 11.5)" d="M0 0h15v15H0z"/></clipPath></defs></svg>