<svg width="29" height="29" fill="none" xmlns="http://www.w3.org/2000/svg"><g clip-path="url(#clip0_141_1637)"><path d="M15.158 28.5h-.257c-.005-.006-.016-.011-.022-.017-.721-.158-1.055-.574-1.055-1.312v-1.99l-1.466.847c-.3.175-.618.263-.968.17-.486-.132-.787-.449-.886-.936a1.15 1.15 0 01.575-1.257c.87-.503 1.733-1.007 2.608-1.504a.22.22 0 00.137-.23c-.005-1.848-.005-3.697-.005-5.54v-.164c-.05.027-.072.033-.088.044a2200.2 2200.2 0 01-4.873 2.81.183.183 0 00-.104.192c.006.98.006 1.953 0 2.926 0 .098-.01.197-.021.295-.055.53-.58 1.089-1.34 1.012-.553-.06-1.04-.59-1.04-1.187v-1.782l-.065.038c-.58.333-1.16.667-1.734 1a1.305 1.305 0 01-.853.187 1.192 1.192 0 01-.973-.864c-.126-.444.022-.98.383-1.231.382-.263.793-.481 1.192-.716.279-.165.563-.329.858-.498-.514-.295-1.011-.58-1.509-.87-.481-.278-.733-.793-.623-1.263.202-.88 1.06-1.252 1.854-.798.842.492 1.69.973 2.532 1.465.087.06.202.06.29 0a1027.79 1027.79 0 014.353-2.515c.164-.093.322-.192.497-.296l-.776-.448a993.827 993.827 0 01-4.13-2.384c-.125-.077-.207-.071-.333 0-.82.48-1.646.957-2.472 1.432a1.235 1.235 0 01-.886.159c-.42-.082-.82-.454-.907-.88-.104-.482.016-.908.41-1.21.279-.212.596-.366.897-.546.24-.142.475-.279.732-.426l-.153-.093c-.536-.312-1.072-.618-1.608-.936-.546-.317-.76-1.011-.48-1.553.294-.58.962-.847 1.541-.58.34.154.657.361.98.547.322.186.65.378.995.575V6.286c0-.755.738-1.324 1.465-1.138.569.143.93.613.93 1.225v3.074a.196.196 0 00.12.197c1.373.787 2.74 1.575 4.113 2.368l.825.476c.006-.022.011-.039.011-.06V6.64a.163.163 0 00-.076-.125c-.306-.186-.624-.361-.935-.542-.613-.355-1.225-.7-1.821-1.066-.41-.252-.602-.799-.476-1.247.224-.81 1.033-1.154 1.772-.744.295.164.59.34.886.509.207.12.415.235.645.366V1.785c0-.623.35-1.088.913-1.23l.164-.039h.257a.182.182 0 00.05.022c.607.104 1.006.569 1.006 1.187v2.056c.07-.038.126-.065.175-.093.448-.257.891-.52 1.34-.776.306-.175.623-.24.968-.132.492.154.787.498.847 1.001.06.503-.136.919-.59 1.187-.88.514-1.761 1.023-2.642 1.531a.178.178 0 00-.104.175v5.617c0 .032.006.07.011.12l.46-.268a2958.52 2958.52 0 014.468-2.576.253.253 0 00.147-.268c-.005-.962-.005-1.925 0-2.887 0-.197.033-.394.099-.58.191-.503.77-.798 1.312-.7.525.093.946.552.963 1.088.016.564.01 1.132.01 1.701v.18l.154-.087c.536-.306 1.066-.612 1.597-.924.246-.148.541-.197.825-.148.514.093.875.47.974 1 .082.438-.142.936-.558 1.193-.339.208-.689.4-1.034.602l-.749.437c.033.022.05.033.06.044.515.295 1.029.585 1.532.891a1.1 1.1 0 01.541 1.045c-.05.924-1.012 1.433-1.816.973-.864-.497-1.733-1-2.597-1.504a.205.205 0 00-.24-.005 839.67 839.67 0 01-3.9 2.258l-1.127.651c.323.186.624.367.925.542 1.34.776 2.68 1.547 4.025 2.324.07.055.17.055.24.005.913-.53 1.827-1.055 2.745-1.58a1.09 1.09 0 01.903-.088c.508.165.793.53.842 1.05.044.47-.159.843-.552 1.1-.274.175-.564.328-.848.497l-.804.465c.038.027.06.044.082.055l1.75 1.006c.405.235.63.59.635 1.056.01.907-.974 1.487-1.778 1.05-.372-.203-.738-.427-1.104-.64-.236-.137-.47-.268-.717-.41v1.482c0 .114-.005.23-.016.339a1.195 1.195 0 01-1.236 1.072c-.624-.017-1.149-.575-1.143-1.17.005-.996 0-1.991 0-2.987a.205.205 0 00-.077-.164c-.268-.164-.547-.322-.82-.481-1.318-.76-2.63-1.52-3.948-2.28a8.385 8.385 0 00-.241-.132c0 1.914 0 3.795.005 5.682a.18.18 0 00.088.137c.388.23.776.454 1.17.678.525.306 1.061.602 1.575.93.492.311.645.951.394 1.487-.24.52-.842.81-1.39.63-.305-.105-.584-.285-.869-.444-.322-.175-.634-.366-.973-.558v2.117c0 .394-.153.727-.481.951-.159.115-.367.17-.564.252z" fill="#5B7DDE"/></g><defs><clipPath id="clip0_141_1637"><path fill="#fff" transform="translate(.988 .5)" d="M0 0h28v28H0z"/></clipPath></defs></svg>