<svg width="28" height="29" fill="none" xmlns="http://www.w3.org/2000/svg"><g clip-path="url(#clip0_141_1485)" fill="#5B7DDE"><path d="M14 22.588a8.088 8.088 0 100-16.176 8.088 8.088 0 000 16.176z"/><path d="M13.71 4.99c.722.197 1.46-.372 1.45-1.116v-2.22c.01-.738-.728-1.313-1.45-1.116h.006a1.153 1.153 0 00-.864 1.116v2.22c-.006.525.35.985.858 1.116zm-6.02.886a1.16 1.16 0 001.306.536c.722-.186 1.077-1.056.695-1.69L8.58 2.797c-.361-.645-1.291-.771-1.81-.24-.373.366-.455.94-.192 1.4l1.11 1.919zM2.301 9.08l1.925 1.11a1.153 1.153 0 001.4-.192c.53-.525.405-1.449-.24-1.81L3.462 7.08a1.152 1.152 0 00-1.69.694 1.142 1.142 0 00.53 1.308zm2.193 5.709c.197-.716-.372-1.46-1.115-1.45H1.16c-.739-.01-1.313.733-1.116 1.45.131.509.59.864 1.115.864h2.22c.52 0 .98-.355 1.116-.864zm1.417 4.72c-.186-.722-1.056-1.078-1.69-.695l-1.925 1.11a1.157 1.157 0 001.16 2.002l1.924-1.11a1.15 1.15 0 00.53-1.308zm3.587 3.368a1.153 1.153 0 00-1.81.24l-1.11 1.926a1.154 1.154 0 00.7 1.69 1.166 1.166 0 001.307-.536l1.11-1.925a1.155 1.155 0 00-.197-1.395zm4.79 1.132c-.716-.197-1.46.372-1.448 1.116v2.22c-.011.738.727 1.313 1.449 1.116.509-.131.864-.59.864-1.116v-2.22c0-.525-.355-.985-.864-1.116zm6.022-.886a1.16 1.16 0 00-1.58-.42 1.148 1.148 0 00-.422 1.574l1.11 1.925a1.16 1.16 0 001.816.24c.372-.366.454-.94.192-1.4l-1.116-1.919zm5.392-3.204l-1.925-1.11a1.153 1.153 0 00-1.4.19c-.53.526-.404 1.45.24 1.811l1.926 1.11a1.154 1.154 0 001.69-.7 1.15 1.15 0 00-.53-1.301zM28 14.5c0-.098-.016-.197-.038-.29v.006a1.152 1.152 0 00-1.116-.864h-2.22c-.525 0-.985.355-1.116.864-.197.716.377 1.46 1.116 1.449h2.22A1.163 1.163 0 0028 14.5zm-5.912-5.01c.186.723 1.056 1.078 1.69.695l1.925-1.11a1.16 1.16 0 00.24-1.816v.006a1.158 1.158 0 00-1.4-.192l-1.924 1.11a1.17 1.17 0 00-.53 1.308zm-3.587-3.368c.525.53 1.449.405 1.81-.24l1.11-1.926c.378-.634.027-1.504-.694-1.69a1.16 1.16 0 00-1.308.536l-1.11 1.925a1.161 1.161 0 00.192 1.395z"/></g><defs><clipPath id="clip0_141_1485"><path fill="#fff" transform="translate(0 .5)" d="M0 0h28v28H0z"/></clipPath></defs></svg>