<svg width="24" height="24" fill="none" xmlns="http://www.w3.org/2000/svg"><path d="M12.001 1.001C18.076 1.001 23 5.925 23 12s-4.924 10.999-10.999 10.999a10.949 10.949 0 01-5.533-1.49l-5.462 1.49 1.487-5.464A10.947 10.947 0 011.002 12c0-6.075 4.924-10.999 10.999-10.999zm-3.748 5.83l-.22.008a1.057 1.057 0 00-.41.11A1.43 1.43 0 007.3 7.2c-.132.124-.207.232-.287.337a3.003 3.003 0 00-.623 1.845c.003.54.143 1.064.363 1.554.45.992 1.19 2.043 2.167 3.016.236.235.467.47.715.689a10.39 10.39 0 004.224 2.25l.624.096c.204.01.407-.004.612-.014.32-.017.633-.104.916-.254a5.68 5.68 0 00.422-.242s.047-.031.137-.1c.148-.11.24-.188.363-.316.091-.095.17-.206.23-.332.087-.18.172-.522.208-.807.026-.217.018-.336.015-.41-.004-.117-.102-.24-.209-.291l-.64-.287s-.957-.417-1.542-.683a.545.545 0 00-.194-.045.529.529 0 00-.415.14c-.006-.003-.08.06-.875 1.023a.384.384 0 01-.405.143 1.585 1.585 0 01-.21-.072l-.277-.12a6.629 6.629 0 01-1.732-1.102c-.139-.121-.268-.253-.4-.381a6.925 6.925 0 01-1.121-1.395l-.065-.104a1.015 1.015 0 01-.112-.226.353.353 0 01.067-.291s.267-.293.391-.451c.121-.154.223-.304.29-.41.13-.21.17-.424.102-.59a91.763 91.763 0 00-.955-2.245c-.065-.147-.257-.253-.432-.274a4.881 4.881 0 00-.178-.017 3.723 3.723 0 00-.444.004l.221-.009.002.001z" fill="#08B419"/></svg>